<svg width="1440" height="1192" viewBox="0 0 1440 1192" fill="none" xmlns="http://www.w3.org/2000/svg">
<g style="mix-blend-mode:soft-light">
<path d="M0 411.313C64.1496 409.63 169.071 363.596 175.725 236.877" stroke="url(#paint0_linear_2_12218)" stroke-opacity="0.5" stroke-miterlimit="10"/>
</g>
<g style="mix-blend-mode:soft-light">
<path d="M0 952.917C263.292 946.007 693.977 757.414 721.323 236.877" stroke="url(#paint1_linear_2_12218)" stroke-opacity="0.5" stroke-miterlimit="10"/>
</g>
<g style="mix-blend-mode:soft-light">
<path d="M581.043 1124.82C603.951 1101.85 603.952 1064.6 581.043 1041.63C558.135 1018.65 520.993 1018.65 498.084 1041.63C475.176 1064.6 475.176 1101.85 498.084 1124.82C520.993 1147.79 558.135 1147.79 581.043 1124.82Z" stroke="url(#paint2_linear_2_12218)" stroke-opacity="0.5" stroke-miterlimit="10"/>
</g>
<path d="M539.556 1128.88C564.691 1128.88 585.067 1108.45 585.067 1083.24C585.067 1058.03 564.691 1037.6 539.556 1037.6C514.421 1037.6 494.045 1058.03 494.045 1083.24C494.045 1108.45 514.421 1128.88 539.556 1128.88Z" fill="url(#paint3_linear_2_12218)" fill-opacity="0.5"/>
<path d="M407.88 635.506C376.388 635.506 345.602 644.871 319.416 662.415C293.23 679.96 272.82 704.897 260.767 734.074C248.713 763.25 245.557 795.355 251.699 826.33C257.84 857.305 273.002 885.758 295.268 908.092C317.534 930.426 345.904 945.638 376.79 951.804C407.677 957.97 439.693 954.813 468.791 942.733C497.889 930.653 522.761 910.192 540.263 883.937C557.765 857.682 567.111 826.812 567.119 795.231C567.124 774.258 563.009 753.489 555.009 734.11C547.009 714.732 535.28 697.123 520.493 682.291C505.706 667.459 488.15 655.693 468.828 647.665C449.505 639.638 428.795 635.506 407.88 635.506V635.506ZM407.88 911.634C384.914 911.631 362.464 904.797 343.371 891.998C324.277 879.199 309.397 861.009 300.613 839.729C291.828 818.45 289.534 795.036 294.02 772.448C298.506 749.861 309.57 729.114 325.814 712.833C342.058 696.552 362.752 685.467 385.278 680.98C407.805 676.493 431.152 678.806 452.368 687.626C473.584 696.446 491.715 711.377 504.468 730.53C517.222 749.684 524.025 772.2 524.017 795.231C524.007 826.11 511.766 855.721 489.986 877.55C468.207 899.379 438.673 911.64 407.88 911.634V911.634Z" fill="url(#paint4_linear_2_12218)" fill-opacity="0.5"/>
<path d="M945.58 1097.26C1103.95 1097.26 1232.33 968.516 1232.33 809.705C1232.33 650.894 1103.95 522.152 945.58 522.152C787.214 522.152 658.832 650.894 658.832 809.705C658.832 968.516 787.214 1097.26 945.58 1097.26Z" fill="url(#paint5_linear_2_12218)" fill-opacity="0.5"/>
<path d="M265.088 829.505C304.356 829.505 336.188 797.583 336.188 758.206C336.188 718.828 304.356 686.906 265.088 686.906C225.821 686.906 193.989 718.828 193.989 758.206C193.989 797.583 225.821 829.505 265.088 829.505Z" fill="url(#paint6_linear_2_12218)" fill-opacity="0.5"/>
<path d="M945.619 1019.82C1061.88 1019.82 1156.13 925.305 1156.13 808.715C1156.13 692.124 1061.88 597.609 945.619 597.609C829.355 597.609 735.104 692.124 735.104 808.715C735.104 925.305 829.355 1019.82 945.619 1019.82Z" fill="url(#paint7_linear_2_12218)" fill-opacity="0.5"/>
<path d="M1286.19 287.485C1272.62 287.485 1259.36 291.52 1248.07 299.08C1236.79 306.641 1227.99 317.386 1222.8 329.959C1217.61 342.531 1216.25 356.365 1218.9 369.712C1221.54 383.059 1228.08 395.319 1237.67 404.941C1247.27 414.564 1259.5 421.117 1272.81 423.771C1286.11 426.426 1299.91 425.064 1312.45 419.856C1324.98 414.648 1335.7 405.829 1343.24 394.515C1350.78 383.2 1354.8 369.897 1354.8 356.289C1354.8 338.041 1347.57 320.54 1334.71 307.637C1321.84 294.734 1304.39 287.485 1286.19 287.485V287.485ZM1286.19 390.186C1279.51 390.186 1272.97 388.198 1267.41 384.474C1261.85 380.749 1257.52 375.455 1254.96 369.261C1252.4 363.067 1251.73 356.251 1253.04 349.676C1254.34 343.101 1257.56 337.061 1262.29 332.32C1267.02 327.579 1273.04 324.351 1279.6 323.043C1286.15 321.735 1292.95 322.406 1299.13 324.972C1305.3 327.538 1310.58 331.882 1314.3 337.457C1318.01 343.031 1319.99 349.585 1319.99 356.289C1319.99 365.278 1316.43 373.896 1310.09 380.252C1303.75 386.608 1295.15 390.181 1286.19 390.186V390.186Z" fill="url(#paint8_linear_2_12218)" fill-opacity="0.5"/>
<path d="M112.069 1054.39C98.4988 1054.39 85.2334 1058.43 73.9502 1065.99C62.6671 1073.55 53.8729 1084.29 48.6798 1096.87C43.4868 1109.44 42.128 1123.27 44.7754 1136.62C47.4228 1149.97 53.9575 1162.23 63.553 1171.85C73.1485 1181.47 85.374 1188.02 98.6834 1190.68C111.993 1193.33 125.788 1191.97 138.326 1186.76C150.863 1181.55 161.578 1172.74 169.118 1161.42C176.657 1150.11 180.681 1136.8 180.681 1123.2C180.681 1104.95 173.452 1087.45 160.585 1074.54C147.718 1061.64 130.266 1054.39 112.069 1054.39V1054.39ZM112.069 1157.09C105.383 1157.09 98.8481 1155.1 93.2893 1151.38C87.7305 1147.66 83.398 1142.36 80.8395 1136.17C78.2811 1129.97 77.6117 1123.16 78.916 1116.58C80.2203 1110.01 83.4396 1103.97 88.167 1099.23C92.8943 1094.49 98.9174 1091.26 105.474 1089.95C112.031 1088.64 118.828 1089.31 125.005 1091.88C131.181 1094.44 136.46 1098.79 140.175 1104.36C143.889 1109.94 145.871 1116.49 145.871 1123.2C145.874 1127.65 145.001 1132.06 143.304 1136.17C141.606 1140.28 139.116 1144.02 135.977 1147.17C132.837 1150.32 129.11 1152.82 125.008 1154.52C120.905 1156.22 116.509 1157.1 112.069 1157.09Z" fill="url(#paint9_linear_2_12218)" fill-opacity="0.5"/>
<path d="M944.05 396.649C948.275 370.749 930.763 346.318 904.935 342.082C879.107 337.845 854.745 355.407 850.52 381.307C846.295 407.207 863.808 431.637 889.636 435.874C915.463 440.111 939.826 422.549 944.05 396.649Z" fill="url(#paint10_linear_2_12218)" fill-opacity="0.5"/>
<path d="M1356.3 1066.88C1402.53 1066.88 1440 1029.31 1440 982.953C1440 936.599 1402.53 899.022 1356.3 899.022C1310.08 899.022 1272.61 936.599 1272.61 982.953C1272.61 1029.31 1310.08 1066.88 1356.3 1066.88Z" fill="url(#paint11_linear_2_12218)" fill-opacity="0.5"/>
<path d="M573.205 447.823C655.416 365.381 655.416 231.716 573.205 149.274C490.994 66.8324 357.703 66.8324 275.492 149.274C193.281 231.716 193.281 365.381 275.492 447.823C357.703 530.265 490.994 530.265 573.205 447.823Z" fill="url(#paint12_linear_2_12218)" fill-opacity="0.5"/>
<path d="M424.367 416.401C489.281 416.401 541.905 363.63 541.905 298.533C541.905 233.436 489.281 180.665 424.367 180.665C359.452 180.665 306.828 233.436 306.828 298.533C306.828 363.63 359.452 416.401 424.367 416.401Z" fill="url(#paint13_linear_2_12218)" fill-opacity="0.5"/>
<g style="mix-blend-mode:soft-light">
<path d="M544.109 418.646C610.251 352.318 610.251 244.78 544.109 178.452C477.967 112.124 370.729 112.124 304.587 178.452C238.445 244.78 238.445 352.318 304.587 418.646C370.729 484.974 477.967 484.974 544.109 418.646Z" stroke="url(#paint14_linear_2_12218)" stroke-opacity="0.5" stroke-miterlimit="10"/>
</g>
<g style="mix-blend-mode:soft-light">
<path d="M1119.36 982.956C1215.32 886.727 1215.32 730.71 1119.36 634.481C1023.4 538.252 867.823 538.252 771.864 634.481C675.905 730.71 675.905 886.727 771.864 982.956C867.823 1079.18 1023.4 1079.18 1119.36 982.956Z" stroke="url(#paint15_linear_2_12218)" stroke-opacity="0.5" stroke-miterlimit="10"/>
</g>
<path d="M959.784 952.757C1039.16 944.925 1097.17 874.051 1089.36 794.456C1081.55 714.861 1010.87 656.685 931.5 664.518C852.127 672.35 794.115 743.224 801.925 822.82C809.736 902.415 880.411 960.59 959.784 952.757Z" fill="url(#paint16_linear_2_12218)" fill-opacity="0.5"/>
<defs>
<linearGradient id="paint0_linear_2_12218" x1="58.6815" y1="293.246" x2="83.8709" y2="374.965" gradientUnits="userSpaceOnUse">
<stop offset="0.03" stop-color="#F8FBFC"/>
<stop offset="1" stop-color="#E5E5E5"/>
</linearGradient>
<linearGradient id="paint1_linear_2_12218" x1="240.878" y1="468.264" x2="344.278" y2="803.712" gradientUnits="userSpaceOnUse">
<stop offset="0.03" stop-color="#F8FBFC"/>
<stop offset="1" stop-color="#E5E5E5"/>
</linearGradient>
<linearGradient id="paint2_linear_2_12218" x1="511.116" y1="1082.33" x2="562.045" y2="1109.04" gradientUnits="userSpaceOnUse">
<stop offset="0.03" stop-color="#F8FBFC"/>
<stop offset="1" stop-color="#E5E5E5"/>
</linearGradient>
<linearGradient id="paint3_linear_2_12218" x1="524.441" y1="1067.1" x2="537.733" y2="1109.78" gradientUnits="userSpaceOnUse">
<stop offset="0.03" stop-color="#F8FBFC"/>
<stop offset="1" stop-color="#E5E5E5"/>
</linearGradient>
<linearGradient id="paint4_linear_2_12218" x1="354.994" y1="738.71" x2="401.501" y2="888.062" gradientUnits="userSpaceOnUse">
<stop offset="0.03" stop-color="#F8FBFC"/>
<stop offset="1" stop-color="#E5E5E5"/>
</linearGradient>
<linearGradient id="paint5_linear_2_12218" x1="850.345" y1="707.997" x2="934.092" y2="976.941" gradientUnits="userSpaceOnUse">
<stop offset="0.03" stop-color="#F8FBFC"/>
<stop offset="1" stop-color="#E5E5E5"/>
</linearGradient>
<linearGradient id="paint6_linear_2_12218" x1="241.475" y1="732.987" x2="262.24" y2="799.672" gradientUnits="userSpaceOnUse">
<stop offset="0.03" stop-color="#F8FBFC"/>
<stop offset="1" stop-color="#E5E5E5"/>
</linearGradient>
<linearGradient id="paint7_linear_2_12218" x1="875.703" y1="734.046" x2="937.185" y2="931.49" gradientUnits="userSpaceOnUse">
<stop offset="0.03" stop-color="#F8FBFC"/>
<stop offset="1" stop-color="#E5E5E5"/>
</linearGradient>
<linearGradient id="paint8_linear_2_12218" x1="1263.4" y1="331.953" x2="1283.44" y2="396.305" gradientUnits="userSpaceOnUse">
<stop offset="0.03" stop-color="#F8FBFC"/>
<stop offset="1" stop-color="#E5E5E5"/>
</linearGradient>
<linearGradient id="paint9_linear_2_12218" x1="89.2814" y1="1098.86" x2="109.32" y2="1163.21" gradientUnits="userSpaceOnUse">
<stop offset="0.03" stop-color="#F8FBFC"/>
<stop offset="1" stop-color="#E5E5E5"/>
</linearGradient>
<linearGradient id="paint10_linear_2_12218" x1="878.204" y1="401.84" x2="924.192" y2="395.427" gradientUnits="userSpaceOnUse">
<stop offset="0.03" stop-color="#F8FBFC"/>
<stop offset="1" stop-color="#E5E5E5"/>
</linearGradient>
<linearGradient id="paint11_linear_2_12218" x1="1328.51" y1="953.266" x2="1352.95" y2="1031.77" gradientUnits="userSpaceOnUse">
<stop offset="0.03" stop-color="#F8FBFC"/>
<stop offset="1" stop-color="#E5E5E5"/>
</linearGradient>
<linearGradient id="paint12_linear_2_12218" x1="322.259" y1="295.327" x2="505.026" y2="391.214" gradientUnits="userSpaceOnUse">
<stop offset="0.03" stop-color="#F8FBFC"/>
<stop offset="1" stop-color="#E5E5E5"/>
</linearGradient>
<linearGradient id="paint13_linear_2_12218" x1="385.329" y1="256.843" x2="419.658" y2="367.083" gradientUnits="userSpaceOnUse">
<stop offset="0.03" stop-color="#F8FBFC"/>
<stop offset="1" stop-color="#E5E5E5"/>
</linearGradient>
<linearGradient id="paint14_linear_2_12218" x1="342.213" y1="295.957" x2="489.256" y2="373.102" gradientUnits="userSpaceOnUse">
<stop offset="0.03" stop-color="#F8FBFC"/>
<stop offset="1" stop-color="#E5E5E5"/>
</linearGradient>
<linearGradient id="paint15_linear_2_12218" x1="826.452" y1="804.958" x2="1039.78" y2="916.88" gradientUnits="userSpaceOnUse">
<stop offset="0.03" stop-color="#F8FBFC"/>
<stop offset="1" stop-color="#E5E5E5"/>
</linearGradient>
<linearGradient id="paint16_linear_2_12218" x1="892.908" y1="762.372" x2="948.163" y2="893.001" gradientUnits="userSpaceOnUse">
<stop offset="0.03" stop-color="#F8FBFC"/>
<stop offset="1" stop-color="#E5E5E5"/>
</linearGradient>
</defs>
</svg>
