<svg width="109" height="109" viewBox="0 0 109 109" fill="none" xmlns="http://www.w3.org/2000/svg">
<circle cx="54.2998" cy="54.2998" r="54.2998" fill="url(#paint0_linear_44_4)"/>
<path d="M75.3452 28.8467H34.0349C32.2096 28.8488 30.4596 29.5749 29.1688 30.8656C27.8781 32.1564 27.152 33.9064 27.1499 35.7317V66.0259C27.152 67.8513 27.8781 69.6013 29.1688 70.892C30.4596 72.1828 32.2096 72.9088 34.0349 72.911H46.428V79.796C46.428 80.0397 46.4927 80.2791 46.6155 80.4896C46.7382 80.7001 46.9146 80.8743 47.1267 80.9943C47.3388 81.1144 47.5789 81.176 47.8226 81.1729C48.0663 81.1698 48.3048 81.1021 48.5137 80.9767L61.957 72.911H75.3452C77.1706 72.9088 78.9206 72.1828 80.2113 70.892C81.5021 69.6013 82.2281 67.8513 82.2303 66.0259V35.7317C82.2281 33.9064 81.5021 32.1564 80.2113 30.8656C78.9206 29.5749 77.1706 28.8488 75.3452 28.8467V28.8467ZM79.4763 66.0259C79.4751 67.1212 79.0394 68.1712 78.265 68.9457C77.4905 69.7201 76.4405 70.1557 75.3452 70.157H61.5751C61.3254 70.1566 61.0804 70.2245 60.8665 70.3533L49.1821 77.3634V71.534C49.1822 71.3531 49.1466 71.174 49.0775 71.0069C49.0083 70.8398 48.9069 70.6879 48.779 70.56C48.6511 70.4321 48.4992 70.3307 48.3321 70.2615C48.165 70.1924 47.9859 70.1568 47.805 70.157H34.0349C32.9397 70.1557 31.8897 69.7201 31.1152 68.9457C30.3407 68.1712 29.9051 67.1212 29.9039 66.0259V35.7317C29.9051 34.6365 30.3407 33.5864 31.1152 32.812C31.8897 32.0375 32.9397 31.6019 34.0349 31.6007H75.3452C76.4405 31.6019 77.4905 32.0375 78.265 32.812C79.0394 33.5864 79.4751 34.6365 79.4763 35.7317V66.0259Z" fill="white"/>
<path d="M54.69 37.1089C51.9666 37.1089 49.3042 37.9165 47.0398 39.4296C44.7753 40.9426 43.0103 43.0932 41.9681 45.6094C40.9259 48.1255 40.6532 50.8943 41.1845 53.5654C41.7158 56.2365 43.0273 58.6901 44.9531 60.6159C46.8789 62.5417 49.3325 63.8532 52.0036 64.3845C54.6747 64.9158 57.4434 64.6431 59.9596 63.6009C62.4758 62.5587 64.6264 60.7937 66.1394 58.5292C67.6525 56.2647 68.4601 53.6024 68.4601 50.879C68.4558 47.2282 67.0037 43.7283 64.4222 41.1468C61.8407 38.5653 58.3408 37.1132 54.69 37.1089ZM54.69 61.895C52.5112 61.895 50.3814 61.249 48.5698 60.0385C46.7582 58.828 45.3463 57.1076 44.5125 55.0946C43.6787 53.0817 43.4606 50.8668 43.8856 48.7298C44.3107 46.5929 45.3599 44.6301 46.9005 43.0894C48.4411 41.5488 50.404 40.4996 52.5409 40.0746C54.6778 39.6495 56.8928 39.8677 58.9057 40.7015C60.9186 41.5352 62.6391 42.9472 63.8495 44.7588C65.06 46.5704 65.7061 48.7002 65.7061 50.879C65.7028 53.7996 64.5411 56.5996 62.4759 58.6648C60.4107 60.73 57.6106 61.8917 54.69 61.895Z" fill="white"/>
<path d="M50.5589 49.5016C50.7398 49.5017 50.9189 49.4662 51.086 49.397C51.2531 49.3279 51.4049 49.2264 51.5328 49.0986C51.6607 48.9707 51.7621 48.8188 51.8313 48.6517C51.9005 48.4846 51.936 48.3055 51.9359 48.1246V46.7476C51.9359 46.3824 51.7908 46.0322 51.5326 45.7739C51.2743 45.5157 50.9241 45.3706 50.5589 45.3706C50.1937 45.3706 49.8434 45.5157 49.5852 45.7739C49.327 46.0322 49.1819 46.3824 49.1819 46.7476V48.1246C49.1818 48.3055 49.2173 48.4846 49.2865 48.6517C49.3556 48.8188 49.4571 48.9707 49.585 49.0986C49.7128 49.2264 49.8647 49.3279 50.0318 49.397C50.1989 49.4662 50.378 49.5017 50.5589 49.5016V49.5016Z" fill="white"/>
<path d="M58.821 45.3706C58.6401 45.3705 58.461 45.406 58.2939 45.4752C58.1268 45.5444 57.9749 45.6458 57.847 45.7737C57.7192 45.9016 57.6177 46.0534 57.5486 46.2205C57.4794 46.3876 57.4439 46.5668 57.444 46.7476V48.1246C57.444 48.4898 57.589 48.8401 57.8473 49.0983C58.1055 49.3566 58.4558 49.5016 58.821 49.5016C59.1862 49.5016 59.5364 49.3566 59.7947 49.0983C60.0529 48.8401 60.198 48.4898 60.198 48.1246V46.7476C60.1981 46.5668 60.1626 46.3876 60.0934 46.2205C60.0242 46.0534 59.9228 45.9016 59.7949 45.7737C59.667 45.6458 59.5152 45.5444 59.3481 45.4752C59.181 45.406 59.0018 45.3705 58.821 45.3706V45.3706Z" fill="white"/>
<path d="M57.9833 54.5458C57.0421 55.2792 55.8832 55.6774 54.69 55.6774C53.4969 55.6774 52.3379 55.2792 51.3968 54.5458C51.2534 54.4358 51.0897 54.3551 50.9152 54.3084C50.7406 54.2616 50.5585 54.2497 50.3793 54.2733C50.2001 54.2969 50.0273 54.3555 49.8708 54.4459C49.7143 54.5363 49.5771 54.6566 49.4671 54.8C49.3571 54.9434 49.2764 55.107 49.2296 55.2816C49.1829 55.4562 49.1709 55.6382 49.1945 55.8174C49.2181 55.9966 49.2768 56.1694 49.3672 56.3259C49.4575 56.4824 49.5778 56.6196 49.7212 56.7296C51.1371 57.8455 52.8873 58.4523 54.69 58.4523C56.4927 58.4523 58.243 57.8455 59.6588 56.7296C59.8022 56.6196 59.9225 56.4824 60.0129 56.3259C60.1033 56.1694 60.1619 55.9966 60.1855 55.8174C60.2091 55.6382 60.1972 55.4562 60.1504 55.2816C60.1037 55.107 60.023 54.9434 59.913 54.8C59.8029 54.6566 59.6658 54.5363 59.5092 54.4459C59.3527 54.3555 59.1799 54.2969 59.0008 54.2733C58.8216 54.2497 58.6395 54.2616 58.4649 54.3084C58.2903 54.3551 58.1267 54.4358 57.9833 54.5458Z" fill="white"/>
<defs>
<linearGradient id="paint0_linear_44_4" x1="5.36294" y1="9.50247" x2="107.697" y2="15.9071" gradientUnits="userSpaceOnUse">
<stop stop-color="#FF383D"/>
<stop offset="1" stop-color="#FF6B39"/>
</linearGradient>
</defs>
</svg>
