<svg width="109" height="109" viewBox="0 0 109 109" fill="none" xmlns="http://www.w3.org/2000/svg">
<circle cx="54.2998" cy="54.2998" r="54.2998" fill="url(#paint0_linear_44_2)"/>
<path d="M48.2043 62.7058C50.1448 61.3761 51.6086 59.4602 52.3816 57.2385C53.1545 55.0168 53.1961 52.6061 52.5 50.3591C51.804 48.1121 50.407 46.147 48.5136 44.7512C46.6201 43.3555 44.3295 42.6025 41.9772 42.6025C39.6249 42.6025 37.3344 43.3555 35.4409 44.7512C33.5474 46.147 32.1504 48.1121 31.4544 50.3591C30.7584 52.6061 30.7999 55.0168 31.5729 57.2385C32.3459 59.4602 33.8097 61.3761 35.7501 62.7058C32.7522 63.7218 30.1474 65.6504 28.3008 68.2214C26.4543 70.7923 25.4585 73.8767 25.4531 77.042V79.7961C25.453 79.9769 25.4886 80.156 25.5577 80.3232C25.6269 80.4903 25.7283 80.6421 25.8562 80.77C25.9841 80.8979 26.1359 80.9993 26.303 81.0685C26.4702 81.1376 26.6493 81.1732 26.8301 81.1731H57.1243C57.3052 81.1732 57.4843 81.1376 57.6514 81.0685C57.8185 80.9993 57.9704 80.8979 58.0983 80.77C58.2262 80.6421 58.3276 80.4903 58.3967 80.3232C58.4659 80.156 58.5014 79.9769 58.5013 79.7961V77.042C58.496 73.8767 57.5002 70.7923 55.6536 68.2214C53.807 65.6504 51.2022 63.7218 48.2043 62.7058ZM33.7152 53.6329C33.7152 51.9988 34.1997 50.4014 35.1076 49.0427C36.0154 47.6841 37.3058 46.6251 38.8155 45.9997C40.3252 45.3744 41.9864 45.2108 43.5891 45.5296C45.1918 45.8484 46.6639 46.6353 47.8194 47.7907C48.9749 48.9462 49.7617 50.4184 50.0805 52.021C50.3993 53.6237 50.2357 55.2849 49.6104 56.7946C48.985 58.3043 47.9261 59.5947 46.5674 60.5025C45.2087 61.4104 43.6113 61.8949 41.9772 61.8949C39.7867 61.8926 37.6866 61.0213 36.1377 59.4724C34.5888 57.9235 33.7176 55.8234 33.7152 53.6329ZM55.7473 78.4191H28.2071V77.042C28.2108 73.7563 29.5177 70.6062 31.841 68.2828C34.1644 65.9595 37.3145 64.6526 40.6002 64.649H43.3542C46.64 64.6526 49.7901 65.9595 52.1134 68.2828C54.4368 70.6062 55.7437 73.7563 55.7473 77.042V78.4191Z" fill="white"/>
<path d="M79.1565 28.8467H59.8783C58.7831 28.8479 57.7331 29.2835 56.9586 30.058C56.1841 30.8324 55.7485 31.8825 55.7473 32.9777V46.7478C55.7485 47.843 56.1841 48.8931 56.9586 49.6675C57.7331 50.442 58.7831 50.8776 59.8783 50.8788H64.0094V55.0099C64.0095 55.2692 64.0829 55.5233 64.221 55.7428C64.3592 55.9623 64.5564 56.1384 64.7902 56.2508C65.0239 56.3632 65.2847 56.4073 65.5424 56.3781C65.8001 56.3489 66.0443 56.2475 66.247 56.0856L72.7555 50.8788H79.1565C80.2517 50.8776 81.3018 50.442 82.0762 49.6675C82.8507 48.8931 83.2863 47.843 83.2875 46.7478V32.9777C83.2863 31.8825 82.8507 30.8324 82.0762 30.058C81.3018 29.2835 80.2517 28.8479 79.1565 28.8467ZM80.5335 46.7478C80.533 47.1129 80.3878 47.4628 80.1296 47.721C79.8715 47.9791 79.5215 48.1243 79.1565 48.1248H72.2714C71.9587 48.125 71.6554 48.2312 71.4108 48.426L66.7634 52.144V49.5018C66.7635 49.321 66.728 49.1418 66.6588 48.9747C66.5896 48.8076 66.4882 48.6558 66.3603 48.5279C66.2324 48.4 66.0806 48.2986 65.9135 48.2294C65.7464 48.1602 65.5672 48.1247 65.3864 48.1248H59.8783C59.5133 48.1243 59.1633 47.9791 58.9052 47.721C58.647 47.4628 58.5018 47.1129 58.5013 46.7478V32.9777C58.5018 32.6126 58.647 32.2627 58.9052 32.0045C59.1633 31.7464 59.5133 31.6012 59.8783 31.6007H79.1565C79.5215 31.6012 79.8715 31.7464 80.1296 32.0045C80.3878 32.2627 80.533 32.6126 80.5335 32.9777V46.7478Z" fill="white"/>
<defs>
<linearGradient id="paint0_linear_44_2" x1="5.36294" y1="9.50247" x2="107.697" y2="15.9071" gradientUnits="userSpaceOnUse">
<stop stop-color="#FF383D"/>
<stop offset="1" stop-color="#FF6B39"/>
</linearGradient>
</defs>
</svg>
