<svg width="109" height="109" viewBox="0 0 109 109" fill="none" xmlns="http://www.w3.org/2000/svg">
<circle cx="54.2998" cy="54.2998" r="54.2998" fill="url(#paint0_linear_44_3)"/>
<path d="M79.6059 49.6509L78.2358 48.9987C77.8899 48.8343 77.5812 48.6011 77.3285 48.3133C77.0758 48.0255 76.8844 47.6892 76.7661 47.325C76.6478 46.9607 76.605 46.5762 76.6403 46.1949C76.6757 45.8135 76.7884 45.4434 76.9717 45.1071L77.6966 43.7745C78.1995 42.849 78.4299 41.7999 78.3612 40.7488C78.2925 39.6977 77.9274 38.6876 77.3083 37.8354C76.6891 36.9832 75.8412 36.3239 74.8628 35.9338C73.8844 35.5436 72.8155 35.4386 71.7798 35.6309L70.2898 35.9093C69.9133 35.9794 69.5264 35.9722 69.1527 35.8879C68.779 35.8036 68.4265 35.6442 68.1164 35.4192C67.8064 35.1942 67.5455 34.9085 67.3495 34.5794C67.1535 34.2503 67.0266 33.8847 66.9765 33.505L66.7798 31.999C66.6429 30.9547 66.2129 29.9706 65.5397 29.1606C64.8664 28.3506 63.9775 27.748 62.9758 27.4225C61.9741 27.097 60.9007 27.062 59.8799 27.3215C58.8592 27.581 57.9328 28.1244 57.2082 28.8887L56.1649 29.9886V29.99C55.8967 30.2599 55.5778 30.4741 55.2265 30.6203C54.8752 30.7664 54.4984 30.8416 54.1179 30.8415C53.7374 30.8413 53.3607 30.7659 53.0095 30.6195C52.6583 30.4732 52.3395 30.2587 52.0716 29.9886L51.0281 28.8886C50.3034 28.1243 49.3769 27.5809 48.3561 27.3215C47.3352 27.062 46.2618 27.0972 45.2601 27.4228C44.2584 27.7485 43.3695 28.3513 42.6963 29.1614C42.0232 29.9715 41.5933 30.9558 41.4566 32.0002L41.2603 33.5036C41.2115 33.8837 41.0852 34.2498 40.8892 34.5792C40.6932 34.9086 40.4318 35.1942 40.1209 35.4185C39.8129 35.6472 39.4605 35.8091 39.0863 35.8936C38.7121 35.9781 38.3243 35.9835 37.9479 35.9093L36.4553 35.6309C35.4197 35.4389 34.351 35.5441 33.3727 35.9343C32.3945 36.3246 31.5468 36.984 30.9279 37.8361C30.3089 38.6882 29.944 39.6983 29.8753 40.7492C29.8067 41.8002 30.0372 42.8491 30.54 43.7745L31.2649 45.1071C31.4482 45.4434 31.5609 45.8135 31.5963 46.1949C31.6316 46.5762 31.5888 46.9607 31.4705 47.325C31.3522 47.6892 31.1608 48.0255 30.9081 48.3133C30.6554 48.6011 30.3467 48.8343 30.0008 48.9987L28.6307 49.6522C27.6796 50.1051 26.8764 50.8182 26.314 51.7089C25.7516 52.5996 25.4531 53.6314 25.4531 54.6848C25.4531 55.7382 25.7516 56.77 26.314 57.6607C26.8764 58.5514 27.6796 59.2645 28.6307 59.7174L30.0008 60.3696C30.3467 60.534 30.6554 60.7672 30.9081 61.055C31.1608 61.3428 31.3522 61.6791 31.4705 62.0433C31.5888 62.4075 31.6316 62.7921 31.5962 63.1734C31.5609 63.5548 31.4482 63.9249 31.2649 64.2612L30.54 65.5938C30.0371 66.5193 29.8067 67.5684 29.8754 68.6195C29.9441 69.6706 30.3092 70.6807 30.9283 71.5329C31.5475 72.385 32.3953 73.0444 33.3738 73.4345C34.3522 73.8247 35.4211 73.9297 36.4568 73.7373L37.9468 73.459C38.3234 73.3888 38.7103 73.3961 39.084 73.4804C39.4576 73.5647 39.8102 73.7242 40.1203 73.9492C40.4303 74.1742 40.6912 74.46 40.8872 74.7891C41.0832 75.1183 41.2101 75.4839 41.2601 75.8636L41.4566 77.3694C41.588 78.4154 42.0158 79.4021 42.6896 80.2129C43.3634 81.0237 44.2551 81.6249 45.2594 81.9455C45.8226 82.1293 46.4112 82.2232 47.0036 82.2238C47.7579 82.2229 48.504 82.0677 49.1962 81.7677C49.8883 81.4678 50.5118 81.0295 51.0283 80.4797L52.0718 79.3781C52.3399 79.1082 52.6588 78.8939 53.0102 78.7478C53.3615 78.6017 53.7382 78.5265 54.1187 78.5266C54.4992 78.5267 54.8759 78.6022 55.2271 78.7485C55.5784 78.8949 55.8971 79.1094 56.1651 79.3795L57.2086 80.4795C57.9333 81.2437 58.8597 81.7871 59.8805 82.0465C60.9013 82.3059 61.9747 82.2707 62.9764 81.9451C63.978 81.6195 64.8669 81.0167 65.5401 80.2067C66.2132 79.3966 66.6431 78.4124 66.7798 77.3681L66.9761 75.8647C67.026 75.4849 67.1527 75.1193 67.3485 74.7901C67.5443 74.4608 67.8051 74.175 68.115 73.9499C68.4249 73.7248 68.7774 73.5651 69.1511 73.4807C69.5247 73.3964 69.9116 73.3889 70.2882 73.459L71.7808 73.7373C72.8163 73.9294 73.8851 73.8243 74.8634 73.434C75.8417 73.0438 76.6894 72.3844 77.3084 71.5323C77.9273 70.6801 78.2923 69.6701 78.3609 68.6191C78.4296 67.5681 78.1991 66.5192 77.6962 65.5938L76.9714 64.2612C76.7881 63.9249 76.6754 63.5548 76.64 63.1734C76.6047 62.7921 76.6475 62.4075 76.7658 62.0433C76.8841 61.6791 77.0754 61.3428 77.3281 61.055C77.5808 60.7672 77.8896 60.534 78.2354 60.3696L79.6056 59.7161C80.5566 59.2632 81.3599 58.5501 81.9223 57.6594C82.4846 56.7687 82.7831 55.7369 82.7831 54.6835C82.7831 53.6301 82.4846 52.5983 81.9223 51.7076C81.3599 50.8169 80.5566 50.1038 79.6056 49.6509H79.6059ZM78.4224 57.2297L77.0523 57.8819C76.3689 58.2075 75.7589 58.6689 75.2596 59.2379C74.7603 59.8069 74.3821 60.4716 74.1481 61.1916C73.9141 61.9115 73.8291 62.6716 73.8984 63.4254C73.9677 64.1792 74.1898 64.9111 74.5512 65.5763L75.276 66.9089C75.5308 67.3768 75.6479 67.9075 75.6135 68.4392C75.5791 68.971 75.3947 69.4821 75.0817 69.9133C74.7687 70.3446 74.3398 70.6783 73.8449 70.8758C73.35 71.0732 72.8092 71.1264 72.2853 71.0291L70.7927 70.7507C70.0482 70.6124 69.2834 70.6272 68.5448 70.7942C67.8062 70.9613 67.1094 71.277 66.4969 71.7222C65.8843 72.1674 65.3689 72.7327 64.982 73.3836C64.5952 74.0346 64.345 74.7575 64.2467 75.5083L64.0503 77.0117C63.9808 77.5401 63.763 78.0379 63.4222 78.4475C63.0814 78.8572 62.6315 79.1619 62.1246 79.3264C61.6178 79.4909 61.0747 79.5085 60.5583 79.377C60.0418 79.2456 59.5732 78.9705 59.2067 78.5837L58.1631 77.4851C57.6333 76.9515 57.0032 76.5281 56.309 76.2391C55.6148 75.9501 54.8704 75.8012 54.1184 75.8011C53.3665 75.8009 52.622 75.9495 51.9278 76.2383C51.2335 76.5271 50.6032 76.9503 50.0732 77.4837L49.0302 78.5837C48.6637 78.9704 48.1952 79.2455 47.6789 79.3769C47.1626 79.5084 46.6196 79.491 46.1128 79.3266C45.606 79.1623 45.1561 78.8578 44.8152 78.4483C44.4743 78.0389 44.2563 77.5413 44.1866 77.0131L43.9902 75.507C43.8142 74.1684 43.1587 72.9391 42.1454 72.0469C41.1321 71.1548 39.8297 70.6603 38.4796 70.6552C38.1318 70.6559 37.7848 70.6878 37.4428 70.7507L35.9529 71.0291C35.4288 71.1267 34.8879 71.0738 34.3927 70.8764C33.8976 70.6791 33.4685 70.3455 33.1553 69.9142C32.842 69.4829 32.6575 68.9716 32.623 68.4397C32.5885 67.9078 32.7055 67.377 32.9605 66.9089L33.6853 65.5763C34.0466 64.9111 34.2687 64.1792 34.338 63.4254C34.4073 62.6716 34.3224 61.9115 34.0883 61.1916C33.8543 60.4716 33.4761 59.8069 32.9768 59.2379C32.4775 58.6689 31.8676 58.2075 31.1841 57.8819L29.814 57.2311C29.333 57.0018 28.9268 56.6409 28.6424 56.1903C28.358 55.7397 28.2071 55.2177 28.2071 54.6848C28.2071 54.152 28.358 53.63 28.6424 53.1794C28.9268 52.7287 29.333 52.3679 29.814 52.1386L31.1841 51.4864C31.8676 51.1608 32.4775 50.6995 32.9768 50.1305C33.4761 49.5614 33.8543 48.8967 34.0883 48.1767C34.3224 47.4568 34.4073 46.6967 34.338 45.9429C34.2687 45.189 34.0466 44.4572 33.6853 43.792L32.9605 42.4594C32.7056 41.9914 32.5886 41.4608 32.623 40.9291C32.6574 40.3973 32.8418 39.8862 33.1548 39.4549C33.4678 39.0237 33.8966 38.69 34.3915 38.4925C34.8865 38.295 35.4272 38.2419 35.9511 38.3392L37.4438 38.6175C38.1882 38.7559 38.9531 38.741 39.6917 38.574C40.4303 38.407 41.1271 38.0913 41.7396 37.6461C42.3521 37.2009 42.8676 36.6356 43.2544 35.9847C43.6413 35.3337 43.8915 34.6108 43.9898 33.86L44.1861 32.3566C44.2557 31.8282 44.4734 31.3304 44.8142 30.9207C45.155 30.511 45.6049 30.2063 46.1118 30.0418C46.6187 29.8773 47.1618 29.8598 47.6782 29.9913C48.1946 30.1227 48.6632 30.3978 49.0298 30.7846L50.0733 31.8832C50.6031 32.4167 51.2332 32.8402 51.9274 33.1292C52.6216 33.4182 53.366 33.5671 54.1179 33.5672C54.8699 33.5673 55.6144 33.4187 56.3086 33.13C57.0029 32.8412 57.6332 32.4179 58.1632 31.8846L59.2067 30.7846C59.5732 30.3979 60.0417 30.1228 60.558 29.9913C61.0743 29.8598 61.6173 29.8773 62.1241 30.0416C62.6309 30.206 63.0808 30.5105 63.4217 30.9199C63.7626 31.3294 63.9805 31.827 64.0503 32.3552L64.2467 33.8613C64.3452 34.6121 64.5956 35.335 64.9827 35.9859C65.3698 36.6367 65.8854 37.2019 66.498 37.647C67.1107 38.092 67.8077 38.4076 68.5463 38.5745C69.285 38.7414 70.0499 38.756 70.7944 38.6175L72.2843 38.3392C72.8083 38.2417 73.3491 38.2948 73.8442 38.4922C74.3392 38.6896 74.7682 39.0232 75.0813 39.4545C75.3944 39.8858 75.5789 40.3969 75.6134 40.9288C75.6478 41.4606 75.5309 41.9913 75.276 42.4594L74.5512 43.792C74.1898 44.4572 73.9677 45.189 73.8984 45.9429C73.8291 46.6967 73.9141 47.4568 74.1481 48.1767C74.3821 48.8967 74.7603 49.5614 75.2596 50.1305C75.7589 50.6995 76.3689 51.1608 77.0523 51.4864L78.4224 52.1373C78.9035 52.3666 79.3097 52.7274 79.5941 53.178C79.8785 53.6287 80.0294 54.1506 80.0294 54.6835C80.0294 55.2163 79.8785 55.7383 79.5941 56.1889C79.3097 56.6396 78.9035 57.0004 78.4224 57.2297Z" fill="white"/>
<path d="M54.1184 38.1604C50.8502 38.1604 47.6554 39.1295 44.9381 40.9452C42.2207 42.7609 40.1027 45.3416 38.8521 48.361C37.6014 51.3804 37.2742 54.7028 37.9118 57.9082C38.5493 61.1136 40.1231 64.0579 42.434 66.3688C44.745 68.6798 47.6893 70.2535 50.8947 70.8911C54.1 71.5287 57.4225 71.2015 60.4419 69.9508C63.4612 68.7001 66.042 66.5822 67.8577 63.8648C69.6733 61.1474 70.6425 57.9527 70.6425 54.6845C70.6377 50.3035 68.8953 46.1033 65.7975 43.0054C62.6996 39.9076 58.4994 38.1651 54.1184 38.1604ZM54.1184 68.4541C51.3949 68.4541 48.7326 67.6465 46.4681 66.1334C44.2036 64.6203 42.4387 62.4697 41.3965 59.9535C40.3542 57.4374 40.0815 54.6687 40.6129 51.9976C41.1442 49.3264 42.4556 46.8728 44.3814 44.947C46.3072 43.0213 48.7608 41.7098 51.4319 41.1785C54.1031 40.6471 56.8718 40.9198 59.3879 41.9621C61.9041 43.0043 64.0547 44.7692 65.5678 47.0337C67.0809 49.2982 67.8885 51.9605 67.8885 54.684C67.8842 58.3347 66.4321 61.8347 63.8506 64.4162C61.2691 66.9977 57.7691 68.4498 54.1184 68.4541Z" fill="white"/>
<path d="M58.4765 49.6778L52.6418 56.7685L49.584 53.7106C49.3243 53.4593 48.9764 53.3202 48.6151 53.3231C48.2538 53.326 47.9081 53.4709 47.6526 53.7263C47.3971 53.9818 47.2523 54.3275 47.2493 54.6888C47.2464 55.0501 47.3855 55.3981 47.6368 55.6577L51.7678 59.7887C51.8955 59.9168 52.0473 60.0184 52.2143 60.0876C52.3814 60.1569 52.5605 60.1924 52.7414 60.1922C52.7629 60.1922 52.7858 60.1922 52.8086 60.1908C53.0004 60.1814 53.1881 60.1321 53.3597 60.0459C53.5312 59.9598 53.6829 59.8388 53.805 59.6906L60.6039 51.4286C60.7188 51.2889 60.8052 51.1279 60.8579 50.9549C60.9107 50.7818 60.9288 50.6001 60.9113 50.42C60.8938 50.2399 60.841 50.0651 60.756 49.9054C60.6709 49.7457 60.5552 49.6044 60.4155 49.4894C60.2759 49.3745 60.1149 49.2881 59.9418 49.2354C59.7688 49.1826 59.587 49.1645 59.407 49.182C59.2269 49.1995 59.052 49.2523 58.8924 49.3373C58.7327 49.4224 58.5914 49.5381 58.4764 49.6778L58.4765 49.6778Z" fill="white"/>
<defs>
<linearGradient id="paint0_linear_44_3" x1="5.36294" y1="9.50247" x2="107.697" y2="15.9071" gradientUnits="userSpaceOnUse">
<stop stop-color="#FF383D"/>
<stop offset="1" stop-color="#FF6B39"/>
</linearGradient>
</defs>
</svg>
